HIERARCHY
ROOT Hips
{
	OFFSET 52.470699 -5.774015 92.793404
	CHANNELS 6 Xposition Yposition Zposition Xrotation Yrotation Zrotation
	JOINT spine
	{
		OFFSET 0.000000 -0.448574 7.800591
		CHANNELS 3 Xrotation Yrotation Zrotation
		JOINT spine1
		{
			OFFSET 0.000000 -0.000002 10.136398
			CHANNELS 3 Xrotation Yrotation Zrotation
			JOINT spine2
			{
				OFFSET 0.000000 -0.000001 9.712509
				CHANNELS 3 Xrotation Yrotation Zrotation
				JOINT Neck
				{
					OFFSET 0.000000 -1.188874 24.936096
					CHANNELS 3 Xrotation Yrotation Zrotation
					JOINT Head
					{
						OFFSET 0.000000 -0.000001 7.533844
						CHANNELS 3 Xrotation Yrotation Zrotation
						End Site
						{
							OFFSET 0.000000 6.014017 18.236099
						}
					}
				}
				JOINT RightShoulder
				{
					OFFSET -4.089649 0.569455 10.488800
					CHANNELS 3 Xrotation Yrotation Zrotation
					JOINT RightArm
					{
						OFFSET 0.000000 -0.000002 13.757004
						CHANNELS 3 Xrotation Yrotation Zrotation
						JOINT RightArmRoll
						{
							OFFSET 0.000000 -0.000001 6.944778
							CHANNELS 3 Xrotation Yrotation Zrotation
							JOINT RightForeArm
							{
								OFFSET 0.000000 -0.000003 20.227692
								CHANNELS 3 Xrotation Yrotation Zrotation
								JOINT RightForeArmRoll
								{
									OFFSET 0.000000 -0.000001 7.793121
									CHANNELS 3 Xrotation Yrotation Zrotation
									JOINT RightHand
									{
										OFFSET 0.000000 -0.000003 15.639099
										CHANNELS 3 Xrotation Yrotation Zrotation
										End Site
										{
											OFFSET 0.000000 0.000000 0.100006
										}
									}
								}
							}
						}
					}
				}
				JOINT LeftShoulder
				{
					OFFSET 4.089649 0.569455 10.488800
					CHANNELS 3 Xrotation Yrotation Zrotation
					JOINT LeftArm
					{
						OFFSET 0.000000 -0.000002 13.757004
						CHANNELS 3 Xrotation Yrotation Zrotation
						JOINT LeftArmRoll
						{
							OFFSET 0.000000 -0.000001 6.944778
							CHANNELS 3 Xrotation Yrotation Zrotation
							JOINT LeftForeArm
							{
								OFFSET 0.000000 -0.000003 20.227692
								CHANNELS 3 Xrotation Yrotation Zrotation
								JOINT LeftForeArmRoll
								{
									OFFSET 0.000000 -0.000001 7.793121
									CHANNELS 3 Xrotation Yrotation Zrotation
									JOINT LeftHand
									{
										OFFSET 0.000000 -0.000003 15.639099
										CHANNELS 3 Xrotation Yrotation Zrotation
										End Site
										{
											OFFSET 0.000000 0.000000 0.100006
										}
									}
								}
							}
						}
					}
				}
			}
		}
	}
	JOINT RightUpLeg
	{
		OFFSET -6.914158 1.063581 -1.267883
		CHANNELS 3 Xrotation Yrotation Zrotation
		JOINT RightUpLegRoll
		{
			OFFSET 0.000000 -0.000003 18.337799
			CHANNELS 3 Xrotation Yrotation Zrotation
			JOINT RightLeg
			{
				OFFSET 0.000000 0.000004 -22.708504
				CHANNELS 3 Xrotation Yrotation Zrotation
				JOINT RightLegRoll
				{
					OFFSET 0.000000 -0.000004 22.782799
					CHANNELS 3 Xrotation Yrotation Zrotation
					JOINT RightFoot
					{
						OFFSET 0.000000 -0.000003 18.962898
						CHANNELS 3 Xrotation Yrotation Zrotation
						JOINT RightToeBase
						{
							OFFSET 0.000000 -0.000002 15.852005
							CHANNELS 3 Xrotation Yrotation Zrotation
							End Site
							{
								OFFSET 0.006718 0.884892 7.677017
							}
						}
					}
				}
			}
		}
	}
	JOINT LeftUpLeg
	{
		OFFSET 6.914158 1.063581 -1.267883
		CHANNELS 3 Xrotation Yrotation Zrotation
		JOINT LeftUpLegRoll
		{
			OFFSET 0.000000 -0.000003 18.337898
			CHANNELS 3 Xrotation Yrotation Zrotation
			JOINT LeftLeg
			{
				OFFSET 0.000000 -0.000003 22.708405
				CHANNELS 3 Xrotation Yrotation Zrotation
				JOINT LeftLegRoll
				{
					OFFSET 0.000000 -0.000004 22.993393
					CHANNELS 3 Xrotation Yrotation Zrotation
					JOINT LeftFoot
					{
						OFFSET 0.000000 -0.000003 18.752197
						CHANNELS 3 Xrotation Yrotation Zrotation
						JOINT LeftToeBase
						{
							OFFSET 0.000000 -0.000002 15.852005
							CHANNELS 3 Xrotation Yrotation Zrotation
							End Site
							{
								OFFSET -0.030113 0.884891 7.677017
							}
						}
					}
				}
			}
		}
	}
}
MOTION
Frames: 10
Frame Time: 0.041667
54.320099 -7.678564 93.142792 -5.330541 -3.965930 -7.023450 -0.825510 0.556961 0.718591 2.350714 1.126112 1.430425 3.995716 1.143284 1.416755 19.042666 18.807781 -3.651097 -14.052733 -22.835143 -3.944608 -8.148410 -65.596782 -10.080312 -40.434720 -115.220756 -32.342541 0.000001 0.000001 0.000000 8.037534 -13.550595 0.234548 0.000007 -0.000001 -3.000000 -5.000212 -7.998733 0.000151 5.689209 77.185447 -3.944937 0.290553 95.959377 -13.962519 0.000000 -0.000001 0.000001 20.848666 7.763402 0.064939 0.000001 -0.000008 3.000000 -5.000333 7.999029 -0.000165 7.088014 -176.689440 1.688470 -179.999991 0.000005 -1.211001 163.014595 -0.037294 -0.698395 -0.000001 0.000003 0.818463 82.110567 6.621526 1.873909 27.182860 -7.347534 0.230699 -12.113245 -175.408110 10.256325 -0.000001 -0.000004 -1.350530 -16.542541 3.538353 0.871846 -0.000003 0.000002 -0.391327 72.955832 -6.694309 -2.400627 25.456962 7.355614 -0.000012 
54.317200 -7.677655 93.157883 -5.326854 -3.968891 -7.027338 -0.826618 0.557263 0.718764 2.347894 1.126764 1.431275 3.992887 1.143937 1.417607 19.036582 18.806699 -3.647501 -14.038977 -22.822565 -3.939139 -8.149911 -65.594494 -10.081859 -40.427835 -115.224567 -32.333863 0.000001 0.000001 -0.000000 8.038739 -13.548776 0.234172 0.000005 -0.000000 -3.000001 -5.000210 -7.998734 0.000151 5.703025 77.193384 -3.958548 0.316145 95.946795 -13.984783 0.000000 0.000000 -0.000001 20.842954 7.770139 0.064544 0.000000 -0.000008 3.000001 -5.000335 7.999029 -0.000165 7.082448 -176.676490 1.707750 -179.999991 0.000005 -1.211002 163.011685 -0.057386 -0.699536 0.000000 0.000002 0.817419 82.110103 6.623938 1.865402 27.185785 -7.347538 0.230713 -12.111273 -175.406115 10.258963 -0.000000 -0.000005 -1.349634 -16.531177 3.536106 0.871278 -0.000003 0.000002 -0.391450 72.948456 -6.693605 -2.403163 25.456964 7.355615 -0.000011 
54.315201 -7.685636 93.146400 -5.323009 -3.971882 -7.030966 -0.827749 0.557568 0.718927 2.344994 1.127476 1.432122 3.989987 1.144650 1.418455 19.030241 18.805167 -3.643847 -14.024771 -22.809728 -3.933619 -8.151671 -65.592581 -10.083748 -40.419393 -115.229075 -32.323976 0.000000 0.000000 -0.000001 8.040273 -13.547239 0.233886 0.000008 0.000000 -3.000002 -5.000209 -7.998735 0.000150 5.717211 77.201212 -3.972563 0.341608 95.934310 -14.007815 -0.000000 -0.000000 0.000000 20.837102 7.776201 0.064278 -0.000001 -0.000008 3.000001 -5.000333 7.999029 -0.000165 7.076658 -176.662556 1.727697 -179.999991 0.000005 -1.211001 163.008489 -0.078418 -0.700965 0.000002 0.000002 0.816343 82.109864 6.626476 1.856594 27.188717 -7.347544 0.230738 -12.109819 -175.403165 10.261954 -0.000000 -0.000005 -1.348741 -16.520103 3.533432 0.870691 -0.000003 0.000002 -0.391630 72.941154 -6.692832 -2.405881 25.456964 7.355616 -0.000012 
54.310501 -7.679010 93.161591 -5.319059 -3.974915 -7.034422 -0.828894 0.557874 0.719086 2.342035 1.128227 1.432969 3.987028 1.145412 1.419291 19.023863 18.803349 -3.640208 -14.010001 -22.796750 -3.927988 -8.153676 -65.590969 -10.085938 -40.412132 -115.232764 -32.315763 0.000001 0.000001 -0.000000 8.042033 -13.546091 0.233691 0.000005 -0.000000 -3.000001 -5.000211 -7.998735 0.000151 5.731736 77.209039 -3.986958 0.366983 95.921920 -14.031364 -0.000000 -0.000001 0.000001 20.831128 7.781781 0.064113 -0.000001 -0.000008 3.000001 -5.000333 7.999030 -0.000166 7.070690 -176.648622 1.748030 -179.999991 0.000005 -1.211001 163.004978 -0.099463 -0.702403 0.000002 0.000002 0.815245 82.109905 6.629025 1.847466 27.191745 -7.347544 0.230775 -12.108566 -175.400200 10.265223 -0.000003 -0.000004 -1.347850 -16.509226 3.530445 0.870089 -0.000003 0.000002 -0.391850 72.933935 -6.691964 -2.408783 25.456959 7.355613 -0.000011 
54.310799 -7.674745 93.143700 -5.315062 -3.977968 -7.037787 -0.830046 0.558184 0.719239 2.339054 1.129009 1.433807 3.984047 1.146194 1.420127 19.017347 18.801259 -3.636513 -13.995117 -22.783677 -3.922374 -8.155848 -65.589651 -10.088313 -40.406265 -115.235687 -32.309284 0.000001 0.000001 0.000001 8.043933 -13.545038 0.233541 0.000007 -0.000001 -3.000001 -5.000211 -7.998732 0.000150 5.746414 77.216750 -4.001506 0.392366 95.909639 -14.055218 0.000000 0.000000 0.000002 20.825035 7.787099 0.064006 0.000001 -0.000008 3.000001 -5.000331 7.999029 -0.000166 7.064628 -176.633692 1.768698 -179.999991 0.000005 -1.211001 163.001454 -0.121447 -0.704131 -0.000001 0.000002 0.814136 82.109939 6.631721 1.838250 27.194781 -7.347544 0.230812 -12.107614 -175.397236 10.268770 -0.000002 -0.000005 -1.346970 -16.498447 3.527294 0.869480 -0.000003 0.000002 -0.392097 72.926599 -6.691100 -2.411893 25.456960 7.355615 -0.000011 
54.308102 -7.674695 93.156502 -5.311030 -3.981021 -7.041117 -0.831202 0.558493 0.719392 2.336054 1.129800 1.434653 3.981058 1.146976 1.420973 19.010839 18.799261 -3.632864 -13.980124 -22.770512 -3.916710 -8.158005 -65.588217 -10.090682 -40.398841 -115.239307 -32.301150 0.000001 0.000001 -0.000000 8.045864 -13.543984 0.233387 0.000005 -0.000002 -3.000000 -5.000211 -7.998732 0.000150 5.761156 77.224475 -4.016118 0.417807 95.897365 -14.079339 -0.000000 0.000000 0.000001 20.818842 7.792353 0.063920 -0.000001 -0.000008 3.000000 -5.000331 7.999029 -0.000165 7.058539 -176.619758 1.789288 -179.999991 0.000005 -1.211001 162.997752 -0.143444 -0.704854 -0.000000 0.000002 0.813021 82.110062 6.634363 1.828923 27.197718 -7.347551 0.230838 -12.106657 -175.394299 10.272424 -0.000003 -0.000005 -1.346091 -16.487669 3.524105 0.868872 -0.000003 0.000002 -0.392347 72.919352 -6.690168 -2.415084 25.456960 7.355615 -0.000012 
54.312202 -7.680367 93.139191 -5.307042 -3.984074 -7.044511 -0.832352 0.558802 0.719546 2.333074 1.130573 1.435501 3.978078 1.147759 1.421808 19.004440 18.797256 -3.629218 -13.965254 -22.757437 -3.911092 -8.160115 -65.586789 -10.092996 -40.391399 -115.242927 -32.292923 0.000002 0.000000 -0.000001 8.047722 -13.542934 0.233216 0.000007 -0.000001 -3.000001 -5.000209 -7.998732 0.000151 5.775819 77.232186 -4.030660 0.443431 95.884975 -14.103431 -0.000000 0.000000 0.000000 20.812753 7.797735 0.063800 0.000001 -0.000008 3.000001 -5.000333 7.999031 -0.000165 7.052500 -176.605824 1.809776 -179.999991 0.000005 -1.211002 162.994227 -0.164486 -0.706299 0.000001 0.000002 0.811913 82.110075 6.637028 1.819709 27.200742 -7.347540 0.230871 -12.105708 -175.391349 10.275870 -0.000002 -0.000004 -1.345209 -16.476887 3.520990 0.868267 -0.000003 0.000002 -0.392586 72.912133 -6.689295 -2.417985 25.456959 7.355612 -0.000011 
54.308498 -7.676668 93.148582 -5.303130 -3.987097 -7.048018 -0.833494 0.559108 0.719706 2.330134 1.131324 1.436338 3.975139 1.148501 1.422655 18.998076 18.795533 -3.625586 -13.950723 -22.744528 -3.905548 -8.162070 -65.585177 -10.095110 -40.384347 -115.246683 -32.284812 0.000002 0.000000 0.000000 8.049417 -13.541591 0.232983 0.000007 -0.000001 -3.000000 -5.000207 -7.998733 0.000150 5.790324 77.240007 -4.045012 0.469290 95.872599 -14.127275 -0.000000 -0.000000 0.000001 20.806785 7.803457 0.063616 -0.000001 -0.000008 3.000000 -5.000332 7.999029 -0.000165 7.046582 -176.591877 1.829979 -179.999991 0.000005 -1.211002 162.990799 -0.186468 -0.708035 -0.000002 0.000002 0.810820 82.110000 6.639603 1.810792 27.203774 -7.347537 0.230906 -12.104455 -175.388398 10.279144 -0.000002 -0.000005 -1.344317 -16.465914 3.518100 0.867672 -0.000003 0.000002 -0.392798 72.904804 -6.688452 -2.420995 25.456965 7.355617 -0.000011 
54.304699 -7.666707 93.138893 -5.299329 -3.990089 -7.051719 -0.834618 0.559412 0.719873 2.327265 1.132016 1.437187 3.972260 1.149193 1.423495 18.991845 18.794075 -3.621941 -13.936540 -22.731778 -3.900049 -8.163778 -65.583169 -10.096920 -40.377292 -115.250426 -32.276322 0.000001 0.000001 0.000000 8.050857 -13.540058 0.232697 0.000006 -0.000000 -3.000001 -5.000208 -7.998732 0.000151 5.804527 77.247937 -4.059042 0.495476 95.860120 -14.150727 0.000000 -0.000001 0.000001 20.801049 7.809721 0.063304 -0.000002 -0.000008 3.000001 -5.000337 7.999030 -0.000165 7.040854 -176.577944 1.849742 -179.999991 0.000005 -1.210999 162.987684 -0.206555 -0.709193 0.000001 0.000002 0.809756 82.109727 6.642089 1.802079 27.206704 -7.347544 0.230931 -12.102784 -175.386403 10.282162 -0.000002 -0.000005 -1.343431 -16.454744 3.515549 0.867098 -0.000003 0.000002 -0.392961 72.897523 -6.687699 -2.423615 25.456964 7.355617 -0.000011 
54.310104 -7.675854 93.141800 -5.295701 -3.993019 -7.055693 -0.835716 0.559711 0.720049 2.324465 1.132638 1.438038 3.969460 1.149825 1.424348 18.985790 18.793180 -3.618347 -13.923155 -22.719345 -3.894723 -8.165115 -65.580683 -10.098293 -40.369051 -115.255003 -32.265954 0.000002 0.000001 -0.000000 8.051931 -13.538043 0.232277 0.000006 -0.000001 -3.000000 -5.000211 -7.998733 0.000150 5.818298 77.255867 -4.072597 0.522060 95.847450 -14.173677 -0.000000 -0.000001 0.000001 20.795450 7.816718 0.062866 -0.000002 -0.000008 3.000000 -5.000334 7.999030 -0.000165 7.035387 -176.563996 1.868899 -179.999991 0.000005 -1.211001 162.984966 -0.226628 -0.710348 0.000001 0.000002 0.808723 82.109208 6.644432 1.793672 27.209640 -7.347538 0.230941 -12.100613 -175.384423 10.284621 -0.000002 -0.000005 -1.342521 -16.443383 3.513471 0.866553 -0.000003 0.000002 -0.393057 72.890160 -6.687030 -2.425955 25.456959 7.355616 -0.000012 
